<mxfile host="Electron" modified="2024-06-04T00:55:54.362Z" agent="Mozilla/5.0 (Windows NT 10.0; Win64; x64) AppleWebKit/537.36 (KHTML, like Gecko) draw.io/24.4.13 Chrome/124.0.6367.207 Electron/30.0.6 Safari/537.36" etag="ET9IfnNfxwKwS_ulCr-C" version="24.4.13" type="device">
  <diagram name="Страница — 1" id="ZiT8lJ-4knjapy51sfM2">
    <mxGraphModel dx="1098" dy="778" grid="1" gridSize="10" guides="1" tooltips="1" connect="1" arrows="1" fold="1" page="1" pageScale="1" pageWidth="827" pageHeight="1169" math="0" shadow="0">
      <root>
        <mxCell id="0" />
        <mxCell id="1" parent="0" />
        <mxCell id="ZXJYznmGM9nHdcmDr4kh-1" value="Начало" style="rounded=1;whiteSpace=wrap;html=1;arcSize=50;" vertex="1" parent="1">
          <mxGeometry x="354" y="22.25" width="120" height="20" as="geometry" />
        </mxCell>
        <mxCell id="ZXJYznmGM9nHdcmDr4kh-2" value="" style="endArrow=none;dashed=1;html=1;rounded=0;exitX=0;exitY=0.5;exitDx=0;exitDy=0;entryX=1;entryY=0.5;entryDx=0;entryDy=0;exitPerimeter=0;" edge="1" source="ZXJYznmGM9nHdcmDr4kh-3" target="ZXJYznmGM9nHdcmDr4kh-1" parent="1">
          <mxGeometry width="50" height="50" relative="1" as="geometry">
            <mxPoint x="520" y="35" as="sourcePoint" />
            <mxPoint x="500" y="35" as="targetPoint" />
          </mxGeometry>
        </mxCell>
        <mxCell id="ZXJYznmGM9nHdcmDr4kh-3" value="    Входные данные:&#xa;     int[,] main&#xa;    Выходные данные:&#xa;     int[] ret" style="strokeWidth=2;shape=mxgraph.flowchart.annotation_1;align=left;pointerEvents=1;recursiveResize=1;autosize=0;verticalAlign=middle;horizontal=1;" vertex="1" parent="1">
          <mxGeometry x="490" y="1" width="50" height="62.5" as="geometry" />
        </mxCell>
        <mxCell id="ZXJYznmGM9nHdcmDr4kh-4" value="ret = new int[2]" style="rounded=0;whiteSpace=wrap;html=1;" vertex="1" parent="1">
          <mxGeometry x="371" y="52.5" width="86" height="20" as="geometry" />
        </mxCell>
        <mxCell id="ZXJYznmGM9nHdcmDr4kh-5" value="" style="endArrow=none;html=1;rounded=0;entryX=0.5;entryY=0;entryDx=0;entryDy=0;exitX=0.5;exitY=1;exitDx=0;exitDy=0;" edge="1" parent="1" source="ZXJYznmGM9nHdcmDr4kh-1" target="ZXJYznmGM9nHdcmDr4kh-4">
          <mxGeometry width="50" height="50" relative="1" as="geometry">
            <mxPoint x="414" y="90" as="sourcePoint" />
            <mxPoint x="450" y="100" as="targetPoint" />
          </mxGeometry>
        </mxCell>
        <mxCell id="ZXJYznmGM9nHdcmDr4kh-10" value="&lt;div&gt;&lt;span style=&quot;background-color: initial;&quot;&gt;count_condition = 0&lt;/span&gt;&lt;br&gt;&lt;/div&gt;" style="rounded=0;whiteSpace=wrap;html=1;" vertex="1" parent="1">
          <mxGeometry x="355" y="110" width="118" height="20" as="geometry" />
        </mxCell>
        <mxCell id="ZXJYznmGM9nHdcmDr4kh-11" value="" style="endArrow=none;html=1;rounded=0;entryX=0.5;entryY=0;entryDx=0;entryDy=0;exitX=0.5;exitY=1;exitDx=0;exitDy=0;" edge="1" parent="1" target="ZXJYznmGM9nHdcmDr4kh-10" source="ZXJYznmGM9nHdcmDr4kh-17">
          <mxGeometry width="50" height="50" relative="1" as="geometry">
            <mxPoint x="570" y="120" as="sourcePoint" />
            <mxPoint x="606" y="130" as="targetPoint" />
          </mxGeometry>
        </mxCell>
        <mxCell id="ZXJYznmGM9nHdcmDr4kh-12" value="array_size = 0" style="rounded=0;whiteSpace=wrap;html=1;" vertex="1" parent="1">
          <mxGeometry x="371" y="330" width="86" height="20" as="geometry" />
        </mxCell>
        <mxCell id="ZXJYznmGM9nHdcmDr4kh-14" value="count_condition++" style="rounded=0;whiteSpace=wrap;html=1;" vertex="1" parent="1">
          <mxGeometry x="500" y="230" width="120" height="20" as="geometry" />
        </mxCell>
        <mxCell id="ZXJYznmGM9nHdcmDr4kh-16" value="" style="endArrow=none;html=1;rounded=0;entryX=0.5;entryY=0;entryDx=0;entryDy=0;exitX=0.5;exitY=1;exitDx=0;exitDy=0;" edge="1" target="ZXJYznmGM9nHdcmDr4kh-17" parent="1" source="ZXJYznmGM9nHdcmDr4kh-4">
          <mxGeometry width="50" height="50" relative="1" as="geometry">
            <mxPoint x="430" y="90" as="sourcePoint" />
            <mxPoint x="460" y="10" as="targetPoint" />
          </mxGeometry>
        </mxCell>
        <mxCell id="ZXJYznmGM9nHdcmDr4kh-17" value="lenght = Get_Length(main)" style="shape=process;whiteSpace=wrap;html=1;backgroundOutline=1;" vertex="1" parent="1">
          <mxGeometry x="319" y="80" width="190" height="20" as="geometry" />
        </mxCell>
        <mxCell id="ZXJYznmGM9nHdcmDr4kh-18" value="" style="endArrow=none;html=1;rounded=0;exitX=0.5;exitY=0;exitDx=0;exitDy=0;exitPerimeter=0;entryX=0.5;entryY=1;entryDx=0;entryDy=0;" edge="1" source="ZXJYznmGM9nHdcmDr4kh-19" parent="1" target="ZXJYznmGM9nHdcmDr4kh-10">
          <mxGeometry width="50" height="50" relative="1" as="geometry">
            <mxPoint x="402" y="320" as="sourcePoint" />
            <mxPoint x="396" y="180" as="targetPoint" />
          </mxGeometry>
        </mxCell>
        <mxCell id="ZXJYznmGM9nHdcmDr4kh-19" value="i = 0; length" style="strokeWidth=2;html=1;shape=mxgraph.flowchart.loop_limit;whiteSpace=wrap;" vertex="1" parent="1">
          <mxGeometry x="364" y="140" width="100" height="20" as="geometry" />
        </mxCell>
        <mxCell id="ZXJYznmGM9nHdcmDr4kh-20" value="i++" style="strokeWidth=2;html=1;shape=mxgraph.flowchart.loop_limit;whiteSpace=wrap;direction=west;" vertex="1" parent="1">
          <mxGeometry x="364" y="300" width="100" height="20" as="geometry" />
        </mxCell>
        <mxCell id="ZXJYznmGM9nHdcmDr4kh-21" value="" style="endArrow=none;html=1;rounded=0;entryX=0.5;entryY=1;entryDx=0;entryDy=0;entryPerimeter=0;exitX=0.5;exitY=0;exitDx=0;exitDy=0;exitPerimeter=0;" edge="1" source="ZXJYznmGM9nHdcmDr4kh-24" target="ZXJYznmGM9nHdcmDr4kh-19" parent="1">
          <mxGeometry width="50" height="50" relative="1" as="geometry">
            <mxPoint x="396" y="230" as="sourcePoint" />
            <mxPoint x="472" y="400" as="targetPoint" />
          </mxGeometry>
        </mxCell>
        <mxCell id="ZXJYznmGM9nHdcmDr4kh-22" value="" style="endArrow=none;html=1;rounded=0;exitX=0.5;exitY=1;exitDx=0;exitDy=0;exitPerimeter=0;entryX=0.5;entryY=0;entryDx=0;entryDy=0;entryPerimeter=0;" edge="1" source="ZXJYznmGM9nHdcmDr4kh-20" target="ZXJYznmGM9nHdcmDr4kh-25" parent="1">
          <mxGeometry width="50" height="50" relative="1" as="geometry">
            <mxPoint x="-71" y="610" as="sourcePoint" />
            <mxPoint x="-97" y="410" as="targetPoint" />
          </mxGeometry>
        </mxCell>
        <mxCell id="ZXJYznmGM9nHdcmDr4kh-23" value="" style="endArrow=none;html=1;rounded=0;entryX=0.5;entryY=0;entryDx=0;entryDy=0;entryPerimeter=0;exitX=0.5;exitY=0;exitDx=0;exitDy=0;" edge="1" target="ZXJYznmGM9nHdcmDr4kh-20" parent="1" source="ZXJYznmGM9nHdcmDr4kh-12">
          <mxGeometry width="50" height="50" relative="1" as="geometry">
            <mxPoint x="414" y="330" as="sourcePoint" />
            <mxPoint x="-70" y="450" as="targetPoint" />
          </mxGeometry>
        </mxCell>
        <mxCell id="ZXJYznmGM9nHdcmDr4kh-24" value="j = 0 + i; length" style="strokeWidth=2;html=1;shape=mxgraph.flowchart.loop_limit;whiteSpace=wrap;" vertex="1" parent="1">
          <mxGeometry x="364" y="170" width="100" height="20" as="geometry" />
        </mxCell>
        <mxCell id="ZXJYznmGM9nHdcmDr4kh-25" value="j++" style="strokeWidth=2;html=1;shape=mxgraph.flowchart.loop_limit;whiteSpace=wrap;direction=west;" vertex="1" parent="1">
          <mxGeometry x="364" y="270" width="100" height="20" as="geometry" />
        </mxCell>
        <mxCell id="ZXJYznmGM9nHdcmDr4kh-27" value="" style="endArrow=none;html=1;rounded=0;entryX=0.5;entryY=1;entryDx=0;entryDy=0;entryPerimeter=0;exitX=0.5;exitY=0;exitDx=0;exitDy=0;" edge="1" source="ZXJYznmGM9nHdcmDr4kh-29" target="ZXJYznmGM9nHdcmDr4kh-24" parent="1">
          <mxGeometry width="50" height="50" relative="1" as="geometry">
            <mxPoint x="414" y="200" as="sourcePoint" />
            <mxPoint x="472" y="440" as="targetPoint" />
          </mxGeometry>
        </mxCell>
        <mxCell id="ZXJYznmGM9nHdcmDr4kh-29" value="main[i,j] % 3 == 0 &amp;amp;&amp;amp; i != j" style="rhombus;whiteSpace=wrap;html=1;" vertex="1" parent="1">
          <mxGeometry x="298.5" y="200" width="231" height="40" as="geometry" />
        </mxCell>
        <mxCell id="ZXJYznmGM9nHdcmDr4kh-30" value="" style="endArrow=none;html=1;rounded=0;entryX=1;entryY=0.5;entryDx=0;entryDy=0;exitX=0.5;exitY=0;exitDx=0;exitDy=0;" edge="1" parent="1" source="ZXJYznmGM9nHdcmDr4kh-14" target="ZXJYznmGM9nHdcmDr4kh-29">
          <mxGeometry width="50" height="50" relative="1" as="geometry">
            <mxPoint x="560" y="240" as="sourcePoint" />
            <mxPoint x="480" y="250" as="targetPoint" />
            <Array as="points">
              <mxPoint x="560" y="220" />
            </Array>
          </mxGeometry>
        </mxCell>
        <mxCell id="ZXJYznmGM9nHdcmDr4kh-31" value="Да" style="text;html=1;align=center;verticalAlign=middle;whiteSpace=wrap;rounded=0;" vertex="1" parent="1">
          <mxGeometry x="500" y="190" width="60" height="30" as="geometry" />
        </mxCell>
        <mxCell id="ZXJYznmGM9nHdcmDr4kh-32" value="Нет" style="text;html=1;align=center;verticalAlign=middle;whiteSpace=wrap;rounded=0;" vertex="1" parent="1">
          <mxGeometry x="270" y="190" width="60" height="30" as="geometry" />
        </mxCell>
        <mxCell id="ZXJYznmGM9nHdcmDr4kh-33" value="" style="endArrow=none;html=1;rounded=0;entryX=0;entryY=0.5;entryDx=0;entryDy=0;" edge="1" parent="1" target="ZXJYznmGM9nHdcmDr4kh-29">
          <mxGeometry width="50" height="50" relative="1" as="geometry">
            <mxPoint x="420" y="260" as="sourcePoint" />
            <mxPoint x="380" y="250" as="targetPoint" />
            <Array as="points">
              <mxPoint x="270" y="260" />
              <mxPoint x="270" y="220" />
            </Array>
          </mxGeometry>
        </mxCell>
        <mxCell id="ZXJYznmGM9nHdcmDr4kh-34" value="" style="endArrow=none;html=1;rounded=0;entryX=0.5;entryY=1;entryDx=0;entryDy=0;exitX=0.5;exitY=1;exitDx=0;exitDy=0;exitPerimeter=0;" edge="1" parent="1" source="ZXJYznmGM9nHdcmDr4kh-25" target="ZXJYznmGM9nHdcmDr4kh-14">
          <mxGeometry width="50" height="50" relative="1" as="geometry">
            <mxPoint x="415" y="290" as="sourcePoint" />
            <mxPoint x="555" y="250" as="targetPoint" />
            <Array as="points">
              <mxPoint x="414" y="260" />
              <mxPoint x="560" y="260" />
            </Array>
          </mxGeometry>
        </mxCell>
        <mxCell id="ZXJYznmGM9nHdcmDr4kh-36" value="" style="endArrow=none;html=1;rounded=0;exitX=0.5;exitY=0;exitDx=0;exitDy=0;exitPerimeter=0;entryX=0.5;entryY=1;entryDx=0;entryDy=0;" edge="1" source="ZXJYznmGM9nHdcmDr4kh-37" parent="1" target="ZXJYznmGM9nHdcmDr4kh-12">
          <mxGeometry width="50" height="50" relative="1" as="geometry">
            <mxPoint x="422.5" y="530" as="sourcePoint" />
            <mxPoint x="416.5" y="390" as="targetPoint" />
          </mxGeometry>
        </mxCell>
        <mxCell id="ZXJYznmGM9nHdcmDr4kh-37" value="i = 0; length" style="strokeWidth=2;html=1;shape=mxgraph.flowchart.loop_limit;whiteSpace=wrap;" vertex="1" parent="1">
          <mxGeometry x="364" y="360" width="100" height="20" as="geometry" />
        </mxCell>
        <mxCell id="ZXJYznmGM9nHdcmDr4kh-38" value="i++" style="strokeWidth=2;html=1;shape=mxgraph.flowchart.loop_limit;whiteSpace=wrap;direction=west;" vertex="1" parent="1">
          <mxGeometry x="364" y="520" width="100" height="20" as="geometry" />
        </mxCell>
        <mxCell id="ZXJYznmGM9nHdcmDr4kh-39" value="" style="endArrow=none;html=1;rounded=0;entryX=0.5;entryY=1;entryDx=0;entryDy=0;entryPerimeter=0;exitX=0.5;exitY=0;exitDx=0;exitDy=0;exitPerimeter=0;" edge="1" source="ZXJYznmGM9nHdcmDr4kh-42" target="ZXJYznmGM9nHdcmDr4kh-37" parent="1">
          <mxGeometry width="50" height="50" relative="1" as="geometry">
            <mxPoint x="416.5" y="440" as="sourcePoint" />
            <mxPoint x="492.5" y="610" as="targetPoint" />
          </mxGeometry>
        </mxCell>
        <mxCell id="ZXJYznmGM9nHdcmDr4kh-40" value="" style="endArrow=none;html=1;rounded=0;exitX=0.5;exitY=1;exitDx=0;exitDy=0;exitPerimeter=0;entryX=0.5;entryY=0;entryDx=0;entryDy=0;entryPerimeter=0;" edge="1" source="ZXJYznmGM9nHdcmDr4kh-38" target="ZXJYznmGM9nHdcmDr4kh-43" parent="1">
          <mxGeometry width="50" height="50" relative="1" as="geometry">
            <mxPoint x="254.5" y="865" as="sourcePoint" />
            <mxPoint x="228.5" y="665" as="targetPoint" />
          </mxGeometry>
        </mxCell>
        <mxCell id="ZXJYznmGM9nHdcmDr4kh-41" value="" style="endArrow=none;html=1;rounded=0;entryX=0.5;entryY=0;entryDx=0;entryDy=0;entryPerimeter=0;exitX=0.5;exitY=0;exitDx=0;exitDy=0;" edge="1" target="ZXJYznmGM9nHdcmDr4kh-38" parent="1" source="ZXJYznmGM9nHdcmDr4kh-64">
          <mxGeometry width="50" height="50" relative="1" as="geometry">
            <mxPoint x="414" y="550" as="sourcePoint" />
            <mxPoint x="255.5" y="575" as="targetPoint" />
          </mxGeometry>
        </mxCell>
        <mxCell id="ZXJYznmGM9nHdcmDr4kh-42" value="j = 0; length" style="strokeWidth=2;html=1;shape=mxgraph.flowchart.loop_limit;whiteSpace=wrap;" vertex="1" parent="1">
          <mxGeometry x="364" y="390" width="100" height="20" as="geometry" />
        </mxCell>
        <mxCell id="ZXJYznmGM9nHdcmDr4kh-43" value="j++" style="strokeWidth=2;html=1;shape=mxgraph.flowchart.loop_limit;whiteSpace=wrap;direction=west;" vertex="1" parent="1">
          <mxGeometry x="364" y="490" width="100" height="20" as="geometry" />
        </mxCell>
        <mxCell id="ZXJYznmGM9nHdcmDr4kh-47" value="array_size++" style="rounded=0;whiteSpace=wrap;html=1;" vertex="1" parent="1">
          <mxGeometry x="500" y="450" width="120" height="20" as="geometry" />
        </mxCell>
        <mxCell id="ZXJYznmGM9nHdcmDr4kh-49" value="" style="endArrow=none;html=1;rounded=0;entryX=0.5;entryY=1;entryDx=0;entryDy=0;entryPerimeter=0;exitX=0.5;exitY=0;exitDx=0;exitDy=0;" edge="1" parent="1" source="ZXJYznmGM9nHdcmDr4kh-50" target="ZXJYznmGM9nHdcmDr4kh-42">
          <mxGeometry width="50" height="50" relative="1" as="geometry">
            <mxPoint x="414" y="420" as="sourcePoint" />
            <mxPoint x="414" y="410" as="targetPoint" />
          </mxGeometry>
        </mxCell>
        <mxCell id="ZXJYznmGM9nHdcmDr4kh-50" value="main[i, j] &amp;gt; count_condition" style="rhombus;whiteSpace=wrap;html=1;" vertex="1" parent="1">
          <mxGeometry x="298.5" y="420" width="231" height="40" as="geometry" />
        </mxCell>
        <mxCell id="ZXJYznmGM9nHdcmDr4kh-51" value="" style="endArrow=none;html=1;rounded=0;entryX=1;entryY=0.5;entryDx=0;entryDy=0;exitX=0.5;exitY=0;exitDx=0;exitDy=0;" edge="1" parent="1" source="ZXJYznmGM9nHdcmDr4kh-47" target="ZXJYznmGM9nHdcmDr4kh-50">
          <mxGeometry width="50" height="50" relative="1" as="geometry">
            <mxPoint x="560" y="460" as="sourcePoint" />
            <mxPoint x="480" y="470" as="targetPoint" />
            <Array as="points">
              <mxPoint x="560" y="440" />
            </Array>
          </mxGeometry>
        </mxCell>
        <mxCell id="ZXJYznmGM9nHdcmDr4kh-52" value="Да" style="text;html=1;align=center;verticalAlign=middle;whiteSpace=wrap;rounded=0;" vertex="1" parent="1">
          <mxGeometry x="500" y="410" width="60" height="30" as="geometry" />
        </mxCell>
        <mxCell id="ZXJYznmGM9nHdcmDr4kh-53" value="Нет" style="text;html=1;align=center;verticalAlign=middle;whiteSpace=wrap;rounded=0;" vertex="1" parent="1">
          <mxGeometry x="270" y="410" width="60" height="30" as="geometry" />
        </mxCell>
        <mxCell id="ZXJYznmGM9nHdcmDr4kh-54" value="" style="endArrow=none;html=1;rounded=0;entryX=0;entryY=0.5;entryDx=0;entryDy=0;" edge="1" parent="1" target="ZXJYznmGM9nHdcmDr4kh-50">
          <mxGeometry width="50" height="50" relative="1" as="geometry">
            <mxPoint x="420" y="480" as="sourcePoint" />
            <mxPoint x="380" y="470" as="targetPoint" />
            <Array as="points">
              <mxPoint x="270" y="480" />
              <mxPoint x="270" y="440" />
            </Array>
          </mxGeometry>
        </mxCell>
        <mxCell id="ZXJYznmGM9nHdcmDr4kh-55" value="" style="endArrow=none;html=1;rounded=0;entryX=0.5;entryY=1;entryDx=0;entryDy=0;exitX=0.5;exitY=1;exitDx=0;exitDy=0;exitPerimeter=0;" edge="1" parent="1" source="ZXJYznmGM9nHdcmDr4kh-43" target="ZXJYznmGM9nHdcmDr4kh-47">
          <mxGeometry width="50" height="50" relative="1" as="geometry">
            <mxPoint x="414" y="490" as="sourcePoint" />
            <mxPoint x="555" y="470" as="targetPoint" />
            <Array as="points">
              <mxPoint x="414" y="480" />
              <mxPoint x="560" y="480" />
            </Array>
          </mxGeometry>
        </mxCell>
        <mxCell id="ZXJYznmGM9nHdcmDr4kh-64" value="ret[0] = count_condition" style="rounded=0;whiteSpace=wrap;html=1;" vertex="1" parent="1">
          <mxGeometry x="346" y="550" width="136" height="20" as="geometry" />
        </mxCell>
        <mxCell id="ZXJYznmGM9nHdcmDr4kh-65" value="" style="endArrow=none;html=1;rounded=0;entryX=0.5;entryY=1;entryDx=0;entryDy=0;exitX=0.5;exitY=0;exitDx=0;exitDy=0;" edge="1" target="ZXJYznmGM9nHdcmDr4kh-64" parent="1" source="ZXJYznmGM9nHdcmDr4kh-66">
          <mxGeometry width="50" height="50" relative="1" as="geometry">
            <mxPoint x="414" y="580" as="sourcePoint" />
            <mxPoint x="515.9999999999999" y="680" as="targetPoint" />
          </mxGeometry>
        </mxCell>
        <mxCell id="ZXJYznmGM9nHdcmDr4kh-66" value="ret[0] = count_condition" style="rounded=0;whiteSpace=wrap;html=1;" vertex="1" parent="1">
          <mxGeometry x="346" y="575" width="136" height="20" as="geometry" />
        </mxCell>
        <mxCell id="ZXJYznmGM9nHdcmDr4kh-67" value="Конец" style="rounded=1;whiteSpace=wrap;html=1;arcSize=50;" vertex="1" parent="1">
          <mxGeometry x="354" y="620" width="120" height="20" as="geometry" />
        </mxCell>
        <mxCell id="ZXJYznmGM9nHdcmDr4kh-68" value="" style="endArrow=none;html=1;rounded=0;entryX=0.5;entryY=0;entryDx=0;entryDy=0;exitX=0.5;exitY=1;exitDx=0;exitDy=0;" edge="1" target="ZXJYznmGM9nHdcmDr4kh-67" parent="1" source="ZXJYznmGM9nHdcmDr4kh-69">
          <mxGeometry width="50" height="50" relative="1" as="geometry">
            <mxPoint x="440" y="710" as="sourcePoint" />
            <mxPoint x="470" y="750" as="targetPoint" />
          </mxGeometry>
        </mxCell>
        <mxCell id="ZXJYznmGM9nHdcmDr4kh-69" value="return ret" style="rounded=0;whiteSpace=wrap;html=1;" vertex="1" parent="1">
          <mxGeometry x="354" y="600" width="120" height="10" as="geometry" />
        </mxCell>
        <mxCell id="ZXJYznmGM9nHdcmDr4kh-70" value="" style="endArrow=none;html=1;rounded=0;entryX=0.5;entryY=1;entryDx=0;entryDy=0;exitX=0.5;exitY=0;exitDx=0;exitDy=0;" edge="1" parent="1" source="ZXJYznmGM9nHdcmDr4kh-69" target="ZXJYznmGM9nHdcmDr4kh-66">
          <mxGeometry width="50" height="50" relative="1" as="geometry">
            <mxPoint x="390" y="680" as="sourcePoint" />
            <mxPoint x="440" y="630" as="targetPoint" />
          </mxGeometry>
        </mxCell>
      </root>
    </mxGraphModel>
  </diagram>
</mxfile>
